# xmcd
#
# Track frame offsets:
#	210
#	30754
#	57614
#	82793
#	114125
#	139310
#	156100
#	185421
#	203890
#	228092
#	254958
#	276438
#	295323
#	326536
#
# Disc length: 4834 seconds
#
# Revision: 0
# Processed by: cddbd v1.4PL0 Copyright (c) Steve Scherf et al.
# Submitted via: dBpowerAMP V4.0
#
DISCID=c612e00e
DTITLE=Tribal house - Tribal house
DYEAR=1900
DGENRE=House
TTITLE0=Claude Monet - Oduduwa story
TTITLE1=Funky junction and Marcelo Castelli - Dum Dum Dum
TTITLE2=Antoine Clamaran Pres. Supala - Alert
TTITLE3=Major Boys - Panamerica
TTITLE4=Tribal Connection Feat. Peter Yamson - Wasso
TTITLE5=Del Gado - Coffe beats vol. 1
TTITLE6=Tribal Fusion - Buddhas groove - Buddhas beat
TTITLE7=Indart Chus and Ceballos - Buenos beats
TTITLE8=GC - Humeda
TTITLE9=Cristian Manolo - Play that beat
TTITLE10=Jaime Lewis and DJ Pippi feat. Kim Cooper - Impress me
TTITLE11=Funky dream men - Chancleta
TTITLE12=Acapulco - So strong
TTITLE13=DATA
EXTD=
EXTT0=
EXTT1=
EXTT2=
EXTT3=
EXTT4=
EXTT5=
EXTT6=
EXTT7=
EXTT8=
EXTT9=
EXTT10=
EXTT11=
EXTT12=
EXTT13=
PLAYORDER=
